<svg xmlns="http://www.w3.org/2000/svg" xmlns:xlink="http://www.w3.org/1999/xlink" width="500" zoomAndPan="magnify" viewBox="0 0 375 374.999991" height="500" preserveAspectRatio="xMidYMid meet" version="1.0"><defs><g/></defs><rect x="-37.5" width="450" fill="#ffffff" y="-37.499999" height="449.999989" fill-opacity="1"/><rect x="-37.5" width="450" fill="#ffffff" y="-37.499999" height="449.999989" fill-opacity="1"/><g fill="#000000" fill-opacity="1"><g transform="translate(73.856059, 294.776352)"><g><path d="M 218.265625 0 L 100.453125 0 C 99.492188 0 99.015625 -0.601562 99.015625 -1.8125 C 99.253906 -6.382812 99.734375 -12.582031 100.453125 -20.40625 C 101.179688 -28.238281 101.96875 -36.128906 102.8125 -44.078125 C 103.65625 -52.035156 104.316406 -58.179688 104.796875 -62.515625 C 105.035156 -62.992188 105.515625 -63.351562 106.234375 -63.59375 C 106.960938 -63.832031 107.566406 -63.953125 108.046875 -63.953125 C 108.523438 -63.710938 109.96875 -63.59375 112.375 -63.59375 C 114.789062 -63.59375 117.257812 -63.59375 119.78125 -63.59375 C 122.3125 -63.59375 123.941406 -63.59375 124.671875 -63.59375 C 124.671875 -63.59375 125.691406 -64.070312 127.734375 -65.03125 C 129.785156 -66 130.8125 -67.691406 130.8125 -70.109375 C 130.570312 -71.304688 130.03125 -74.851562 129.1875 -80.75 C 128.34375 -86.65625 127.378906 -93.398438 126.296875 -100.984375 C 125.210938 -108.578125 124.25 -115.867188 123.40625 -122.859375 C 122.5625 -129.847656 122.019531 -135.03125 121.78125 -138.40625 C 121.539062 -143.695312 120.816406 -148.148438 119.609375 -151.765625 C 118.398438 -155.378906 116.59375 -157.1875 114.1875 -157.1875 C 110.8125 -157.425781 108.460938 -155.800781 107.140625 -152.3125 C 105.816406 -148.820312 105.035156 -146.113281 104.796875 -144.1875 C 104.066406 -138.882812 102.859375 -131.414062 101.171875 -121.78125 C 99.492188 -112.144531 97.566406 -101.546875 95.390625 -89.984375 C 93.222656 -78.421875 91.175781 -66.851562 89.25 -55.28125 C 87.320312 -43.71875 85.695312 -33.175781 84.375 -23.65625 C 83.050781 -14.144531 82.269531 -6.863281 82.03125 -1.8125 C 82.03125 -0.601562 81.664062 0 80.9375 0 L 7.953125 0 C 6.984375 0 6.617188 -0.722656 6.859375 -2.171875 C 7.109375 -3.128906 7.289062 -4.148438 7.40625 -5.234375 C 7.53125 -6.316406 7.710938 -7.34375 7.953125 -8.3125 C 8.429688 -10.476562 9.394531 -15.113281 10.84375 -22.21875 C 12.289062 -29.332031 13.914062 -37.34375 15.71875 -46.25 C 17.519531 -55.164062 19.265625 -63.78125 20.953125 -72.09375 C 22.640625 -80.40625 24.085938 -86.847656 25.296875 -91.421875 C 25.773438 -94.554688 26.675781 -99.859375 28 -107.328125 C 29.332031 -114.796875 30.78125 -123.40625 32.34375 -133.15625 C 33.90625 -142.914062 35.53125 -152.914062 37.21875 -163.15625 C 38.90625 -173.394531 40.410156 -183.085938 41.734375 -192.234375 C 43.054688 -201.390625 44.195312 -208.976562 45.15625 -215 C 46.125 -221.03125 46.609375 -224.644531 46.609375 -225.84375 C 46.859375 -226.8125 47.34375 -227.296875 48.0625 -227.296875 L 179.59375 -227.296875 C 180.070312 -227.296875 180.429688 -226.8125 180.671875 -225.84375 C 181.160156 -223.4375 182.066406 -218.4375 183.390625 -210.84375 C 184.710938 -203.257812 186.15625 -194.769531 187.71875 -185.375 C 189.289062 -175.976562 190.796875 -167.003906 192.234375 -158.453125 C 193.679688 -149.898438 194.890625 -143.21875 195.859375 -138.40625 C 197.546875 -128.769531 199.109375 -119.128906 200.546875 -109.484375 C 201.992188 -99.847656 203.441406 -90.210938 204.890625 -80.578125 C 205.367188 -78.648438 206.03125 -74.976562 206.875 -69.5625 C 207.71875 -64.144531 208.800781 -58 210.125 -51.125 C 211.457031 -44.257812 212.722656 -37.332031 213.921875 -30.34375 C 215.128906 -23.363281 216.273438 -17.34375 217.359375 -12.28125 C 218.441406 -7.226562 219.101562 -3.859375 219.34375 -2.171875 C 219.820312 -0.722656 219.460938 0 218.265625 0 Z M 218.265625 0 "/></g></g></g></svg>